
<svg fill="#111111" stroke="#111111" height="24px" width="24px" version="1.1" id="Capa_1" xmlns="http://www.w3.org/2000/svg" xmlns:xlink="http://www.w3.org/1999/xlink" 
	 viewBox="0 0 297.167 297.167" xml:space="preserve">
<g>
	<path d="M289.167,281.083h-281c-4.418,0-8,3.582-8,8s3.582,8,8,8h281c4.418,0,8-3.582,8-8S293.585,281.083,289.167,281.083z"/>
	<path d="M41.034,223.563c3.261,7.703,8.104,14.807,14.379,20.926c12.295,11.991,28.37,18.595,45.266,18.595h95.977
		c34.469,0,62.179-28.482,62.179-63.492V91.083c0-4.418-3.249-8-7.667-8h-207c-4.418,0-8.333,3.582-8.333,8v29.955
		C14.833,128.305,0,148.211,0,171.583C0,196.732,17.612,217.869,41.034,223.563z M242.833,99.083v100.508
		c0,26.188-20.532,47.492-46.179,47.492h-95.977c-26.296,0-48.845-21.749-48.845-47.492V99.083H242.833z M35.833,138.431v61.16
		c0,1.768,0.259,3.523,0.408,5.268c-12.014-6.256-20.324-18.818-20.324-33.275C15.917,157.224,23.833,144.73,35.833,138.431z"/>
	<path d="M107.166,59.083c0,4.418,3.582,8,8,8c4.418,0,8-3.582,8-8c0-2.462,0.414-3.341,1.238-5.094
		c1.166-2.477,2.762-5.868,2.762-11.907c0-6.039-1.596-9.431-2.762-11.907c-0.824-1.753-1.238-2.632-1.238-5.094
		c0-2.461,0.414-3.341,1.238-5.093c1.166-2.476,2.762-5.867,2.762-11.905c0-4.418-3.582-8-8-8c-4.418,0-8,3.582-8,8
		c0,2.461-0.414,3.341-1.238,5.093c-1.166,2.476-2.762,5.867-2.762,11.905c0,6.038,1.596,9.43,2.762,11.906
		c0.824,1.753,1.238,2.632,1.238,5.095c0,2.462-0.414,3.342-1.238,5.095C108.762,49.654,107.166,53.045,107.166,59.083z"/>
	<path d="M139.167,59.083c0,4.418,3.582,8,8,8s8-3.582,8-8c0-2.462,0.414-3.341,1.238-5.094c1.166-2.477,2.762-5.868,2.762-11.907
		c0-6.039-1.596-9.431-2.762-11.907c-0.824-1.753-1.238-2.632-1.238-5.094c0-2.461,0.414-3.341,1.238-5.093
		c1.166-2.476,2.762-5.867,2.762-11.905c0-4.418-3.582-8-8-8s-8,3.582-8,8c0,2.461-0.414,3.341-1.238,5.093
		c-1.166,2.476-2.762,5.867-2.762,11.905c0,6.038,1.596,9.43,2.762,11.906c0.824,1.753,1.238,2.632,1.238,5.095
		c0,2.462-0.414,3.342-1.238,5.095C140.762,49.654,139.167,53.045,139.167,59.083z"/>
	<path d="M171.167,59.083c0,4.418,3.582,8,8,8s8-3.582,8-8c0-2.462,0.414-3.341,1.238-5.094c1.166-2.477,2.762-5.868,2.762-11.907
		c0-6.039-1.596-9.431-2.762-11.907c-0.824-1.753-1.238-2.632-1.238-5.094c0-2.461,0.414-3.341,1.238-5.093
		c1.166-2.476,2.762-5.867,2.762-11.905c0-4.418-3.582-8-8-8s-8,3.582-8,8c0,2.461-0.414,3.341-1.238,5.093
		c-1.166,2.476-2.762,5.867-2.762,11.905c0,6.038,1.596,9.43,2.762,11.906c0.824,1.753,1.238,2.632,1.238,5.095
		c0,2.462-0.414,3.342-1.238,5.095C172.762,49.654,171.167,53.045,171.167,59.083z"/>
	<path d="M116.553,140.97c-21.259,21.26-24.598,52.513-7.442,69.669c7.122,7.121,17.096,11.043,28.086,11.043
		c14.678,0,29.834-6.737,41.583-18.486c21.259-21.26,24.597-52.513,7.442-69.668c-7.122-7.121-17.096-11.043-28.086-11.043
		C143.458,122.485,128.302,129.222,116.553,140.97z M167.466,191.882c-8.642,8.642-19.958,13.8-30.27,13.8
		c-4.41,0-10.556-0.956-15.617-5.295c12.532-11.941,20.883-16.697,29.665-21.682c8.588-4.875,17.428-9.895,29.791-21.191
		C182.611,168.313,177.808,181.538,167.466,191.882z M143.346,164.79c-8.449,4.796-17.142,9.732-29.193,20.648
		c-1.063-10.566,3.755-23.195,13.714-33.154c8.642-8.642,19.958-13.8,30.269-13.8c4.187,0,9.937,0.86,14.839,4.658
		C160.463,155.059,152.121,159.811,143.346,164.79z"/>
</g>
</svg>